<?xml version="1.0" encoding="UTF-8" standalone="no"?>
<!DOCTYPE svg PUBLIC "-//W3C//DTD SVG 1.1//EN"
 "http://www.w3.org/Graphics/SVG/1.1/DTD/svg11.dtd">
<!-- Generated by graphviz version 14.1.1 (20251213.1925)
 -->
<!-- Title: DecisionTree Pages: 1 -->
<svg width="787pt" height="691pt"
 viewBox="0.00 0.00 787.00 691.00" xmlns="http://www.w3.org/2000/svg" xmlns:xlink="http://www.w3.org/1999/xlink">
<g id="graph0" class="graph" transform="scale(1 1) rotate(0) translate(14.4 676.65)">
<title>DecisionTree</title>
<polygon fill="#ffffff" stroke="none" points="-14.4,14.4 -14.4,-676.65 772.52,-676.65 772.52,14.4 -14.4,14.4"/>
<!-- is_gui -->
<g id="node1" class="node">
<title>is_gui</title>
<path fill="#dddddd" stroke="#111111" d="M600.25,-662.25C600.25,-662.25 540.75,-662.25 540.75,-662.25 534.75,-662.25 528.75,-656.25 528.75,-650.25 528.75,-650.25 528.75,-638.25 528.75,-638.25 528.75,-632.25 534.75,-626.25 540.75,-626.25 540.75,-626.25 600.25,-626.25 600.25,-626.25 606.25,-626.25 612.25,-632.25 612.25,-638.25 612.25,-638.25 612.25,-650.25 612.25,-650.25 612.25,-656.25 606.25,-662.25 600.25,-662.25"/>
<text xml:space="preserve" text-anchor="middle" x="570.5" y="-639.58" font-family="Droid Sans" font-size="14.00">Is it a GUI?</text>
</g>
<!-- has_brew -->
<g id="node2" class="node">
<title>has_brew</title>
<path fill="#dddddd" stroke="#111111" d="M550.38,-537C550.38,-537 374.62,-537 374.62,-537 368.62,-537 362.62,-531 362.62,-525 362.62,-525 362.62,-513 362.62,-513 362.62,-507 368.62,-501 374.62,-501 374.62,-501 550.38,-501 550.38,-501 556.38,-501 562.38,-507 562.38,-513 562.38,-513 562.38,-525 562.38,-525 562.38,-531 556.38,-537 550.38,-537"/>
<text xml:space="preserve" text-anchor="middle" x="462.5" y="-514.33" font-family="Droid Sans" font-size="14.00">Does it have a brew formula?</text>
</g>
<!-- is_gui&#45;&gt;has_brew -->
<g id="edge1" class="edge">
<title>is_gui&#45;&gt;has_brew</title>
<path fill="none" stroke="black" stroke-width="2" d="M555.26,-625.85C537.24,-605.3 507.08,-570.87 486.05,-546.88"/>
<polygon fill="black" stroke="black" stroke-width="2" points="488.88,-544.8 479.66,-539.59 483.62,-549.41 488.88,-544.8"/>
<text xml:space="preserve" text-anchor="middle" x="532.34" y="-576.95" font-family="Droid Sans" font-size="14.00">No</text>
</g>
<!-- has_flatpak -->
<g id="node3" class="node">
<title>has_flatpak</title>
<path fill="#dddddd" stroke="#111111" d="M746.12,-537C746.12,-537 610.88,-537 610.88,-537 604.88,-537 598.88,-531 598.88,-525 598.88,-525 598.88,-513 598.88,-513 598.88,-507 604.88,-501 610.88,-501 610.88,-501 746.12,-501 746.12,-501 752.12,-501 758.12,-507 758.12,-513 758.12,-513 758.12,-525 758.12,-525 758.12,-531 752.12,-537 746.12,-537"/>
<text xml:space="preserve" text-anchor="middle" x="678.5" y="-514.33" font-family="Droid Sans" font-size="14.00">Does it have a Flatpak?</text>
</g>
<!-- is_gui&#45;&gt;has_flatpak -->
<g id="edge2" class="edge">
<title>is_gui&#45;&gt;has_flatpak</title>
<path fill="none" stroke="black" stroke-width="2" d="M585.74,-625.85C603.76,-605.3 633.92,-570.87 654.95,-546.88"/>
<polygon fill="black" stroke="black" stroke-width="2" points="657.38,-549.41 661.34,-539.59 652.12,-544.8 657.38,-549.41"/>
<text xml:space="preserve" text-anchor="middle" x="641.09" y="-576.95" font-family="Droid Sans" font-size="14.00">Yes</text>
</g>
<!-- can_use_distrobox -->
<g id="node4" class="node">
<title>can_use_distrobox</title>
<path fill="#dddddd" stroke="#111111" d="M577.25,-411.75C577.25,-411.75 385.75,-411.75 385.75,-411.75 379.75,-411.75 373.75,-405.75 373.75,-399.75 373.75,-399.75 373.75,-387.75 373.75,-387.75 373.75,-381.75 379.75,-375.75 385.75,-375.75 385.75,-375.75 577.25,-375.75 577.25,-375.75 583.25,-375.75 589.25,-381.75 589.25,-387.75 589.25,-387.75 589.25,-399.75 589.25,-399.75 589.25,-405.75 583.25,-411.75 577.25,-411.75"/>
<text xml:space="preserve" text-anchor="middle" x="481.5" y="-389.07" font-family="Droid Sans" font-size="14.00">Can you install it in a distrobox?</text>
</g>
<!-- has_brew&#45;&gt;can_use_distrobox -->
<g id="edge4" class="edge">
<title>has_brew&#45;&gt;can_use_distrobox</title>
<path fill="none" stroke="black" stroke-width="2" d="M465.18,-500.6C468.21,-480.97 473.19,-448.67 476.85,-424.9"/>
<polygon fill="black" stroke="black" stroke-width="2" points="480.31,-425.47 478.37,-415.05 473.39,-424.4 480.31,-425.47"/>
<text xml:space="preserve" text-anchor="middle" x="482.51" y="-451.7" font-family="Droid Sans" font-size="14.00">No</text>
</g>
<!-- install -->
<g id="node7" class="node">
<title>install</title>
<path fill="#dddddd" stroke="#111111" d="M687.62,-411.75C687.62,-411.75 645.38,-411.75 645.38,-411.75 639.38,-411.75 633.38,-405.75 633.38,-399.75 633.38,-399.75 633.38,-387.75 633.38,-387.75 633.38,-381.75 639.38,-375.75 645.38,-375.75 645.38,-375.75 687.62,-375.75 687.62,-375.75 693.62,-375.75 699.62,-381.75 699.62,-387.75 699.62,-387.75 699.62,-399.75 699.62,-399.75 699.62,-405.75 693.62,-411.75 687.62,-411.75"/>
<text xml:space="preserve" text-anchor="middle" x="666.5" y="-389.07" font-family="Droid Sans" font-size="14.00">Install it</text>
</g>
<!-- has_brew&#45;&gt;install -->
<g id="edge3" class="edge">
<title>has_brew&#45;&gt;install</title>
<path fill="none" stroke="black" stroke-width="2" d="M479.46,-500.71C495.2,-485.36 519.83,-463.05 544.25,-447.75 568.29,-432.69 597.35,-419.9 621.1,-410.66"/>
<polygon fill="black" stroke="black" stroke-width="2" points="622.05,-414.04 630.16,-407.23 619.57,-407.5 622.05,-414.04"/>
<text xml:space="preserve" text-anchor="middle" x="554.38" y="-451.7" font-family="Droid Sans" font-size="14.00">Yes</text>
</g>
<!-- has_flatpak&#45;&gt;can_use_distrobox -->
<g id="edge6" class="edge">
<title>has_flatpak&#45;&gt;can_use_distrobox</title>
<path fill="none" stroke="black" stroke-width="2" d="M653.77,-500.77C632.69,-486.25 601.44,-465.12 573.5,-447.75 557.5,-437.81 539.61,-427.35 523.9,-418.39"/>
<polygon fill="black" stroke="black" stroke-width="2" points="525.95,-415.53 515.53,-413.64 522.5,-421.62 525.95,-415.53"/>
<text xml:space="preserve" text-anchor="middle" x="609.17" y="-451.7" font-family="Droid Sans" font-size="14.00">No</text>
</g>
<!-- has_flatpak&#45;&gt;install -->
<g id="edge5" class="edge">
<title>has_flatpak&#45;&gt;install</title>
<path fill="none" stroke="black" stroke-width="2" d="M676.81,-500.6C674.89,-480.97 671.75,-448.67 669.44,-424.9"/>
<polygon fill="black" stroke="black" stroke-width="2" points="672.93,-424.69 668.48,-415.07 665.96,-425.36 672.93,-424.69"/>
<text xml:space="preserve" text-anchor="middle" x="683.34" y="-451.7" font-family="Droid Sans" font-size="14.00">Yes</text>
</g>
<!-- has_appimage -->
<g id="node5" class="node">
<title>has_appimage</title>
<path fill="#dddddd" stroke="#111111" d="M463,-286.5C463,-286.5 300,-286.5 300,-286.5 294,-286.5 288,-280.5 288,-274.5 288,-274.5 288,-262.5 288,-262.5 288,-256.5 294,-250.5 300,-250.5 300,-250.5 463,-250.5 463,-250.5 469,-250.5 475,-256.5 475,-262.5 475,-262.5 475,-274.5 475,-274.5 475,-280.5 469,-286.5 463,-286.5"/>
<text xml:space="preserve" text-anchor="middle" x="381.5" y="-263.82" font-family="Droid Sans" font-size="14.00">Does it have an AppImage?</text>
</g>
<!-- can_use_distrobox&#45;&gt;has_appimage -->
<g id="edge8" class="edge">
<title>can_use_distrobox&#45;&gt;has_appimage</title>
<path fill="none" stroke="black" stroke-width="2" d="M467.38,-375.35C450.78,-354.89 423.02,-320.68 403.57,-296.7"/>
<polygon fill="black" stroke="black" stroke-width="2" points="406.47,-294.72 397.45,-289.16 401.03,-299.13 406.47,-294.72"/>
<text xml:space="preserve" text-anchor="middle" x="446.86" y="-326.45" font-family="Droid Sans" font-size="14.00">No</text>
</g>
<!-- export -->
<g id="node8" class="node">
<title>export</title>
<path fill="#dddddd" stroke="#111111" d="M637.62,-286.5C637.62,-286.5 523.38,-286.5 523.38,-286.5 517.38,-286.5 511.38,-280.5 511.38,-274.5 511.38,-274.5 511.38,-262.5 511.38,-262.5 511.38,-256.5 517.38,-250.5 523.38,-250.5 523.38,-250.5 637.62,-250.5 637.62,-250.5 643.62,-250.5 649.62,-256.5 649.62,-262.5 649.62,-262.5 649.62,-274.5 649.62,-274.5 649.62,-280.5 643.62,-286.5 637.62,-286.5"/>
<text xml:space="preserve" text-anchor="middle" x="580.5" y="-263.82" font-family="Droid Sans" font-size="14.00">Install and export it</text>
</g>
<!-- can_use_distrobox&#45;&gt;export -->
<g id="edge7" class="edge">
<title>can_use_distrobox&#45;&gt;export</title>
<path fill="none" stroke="black" stroke-width="2" d="M495.47,-375.35C511.91,-354.89 539.39,-320.68 558.65,-296.7"/>
<polygon fill="black" stroke="black" stroke-width="2" points="561.17,-299.16 564.7,-289.17 555.71,-294.77 561.17,-299.16"/>
<text xml:space="preserve" text-anchor="middle" x="547.05" y="-326.45" font-family="Droid Sans" font-size="14.00">Yes</text>
</g>
<!-- can_layer -->
<g id="node6" class="node">
<title>can_layer</title>
<path fill="#dddddd" stroke="#111111" d="M320.25,-161.25C320.25,-161.25 224.75,-161.25 224.75,-161.25 218.75,-161.25 212.75,-155.25 212.75,-149.25 212.75,-149.25 212.75,-137.25 212.75,-137.25 212.75,-131.25 218.75,-125.25 224.75,-125.25 224.75,-125.25 320.25,-125.25 320.25,-125.25 326.25,-125.25 332.25,-131.25 332.25,-137.25 332.25,-137.25 332.25,-149.25 332.25,-149.25 332.25,-155.25 326.25,-161.25 320.25,-161.25"/>
<text xml:space="preserve" text-anchor="middle" x="272.5" y="-138.57" font-family="Droid Sans" font-size="14.00">Can you layer it?</text>
</g>
<!-- has_appimage&#45;&gt;can_layer -->
<g id="edge10" class="edge">
<title>has_appimage&#45;&gt;can_layer</title>
<path fill="none" stroke="black" stroke-width="2" d="M366.11,-250.1C347.94,-229.55 317.49,-195.12 296.27,-171.13"/>
<polygon fill="black" stroke="black" stroke-width="2" points="299.06,-169 289.81,-163.83 293.82,-173.64 299.06,-169"/>
<text xml:space="preserve" text-anchor="middle" x="342.9" y="-201.2" font-family="Droid Sans" font-size="14.00">No</text>
</g>
<!-- gearlever -->
<g id="node9" class="node">
<title>gearlever</title>
<path fill="#dddddd" stroke="#111111" d="M600.5,-161.25C600.5,-161.25 380.5,-161.25 380.5,-161.25 374.5,-161.25 368.5,-155.25 368.5,-149.25 368.5,-149.25 368.5,-137.25 368.5,-137.25 368.5,-131.25 374.5,-125.25 380.5,-125.25 380.5,-125.25 600.5,-125.25 600.5,-125.25 606.5,-125.25 612.5,-131.25 612.5,-137.25 612.5,-137.25 612.5,-149.25 612.5,-149.25 612.5,-155.25 606.5,-161.25 600.5,-161.25"/>
<text xml:space="preserve" text-anchor="middle" x="490.5" y="-138.57" font-family="Droid Sans" font-size="14.00">Download it and put it in Gear Lever</text>
</g>
<!-- has_appimage&#45;&gt;gearlever -->
<g id="edge9" class="edge">
<title>has_appimage&#45;&gt;gearlever</title>
<path fill="none" stroke="black" stroke-width="2" d="M396.89,-250.1C415.06,-229.55 445.51,-195.12 466.73,-171.13"/>
<polygon fill="black" stroke="black" stroke-width="2" points="469.18,-173.64 473.19,-163.83 463.94,-169 469.18,-173.64"/>
<text xml:space="preserve" text-anchor="middle" x="452.65" y="-201.2" font-family="Droid Sans" font-size="14.00">Yes</text>
</g>
<!-- custom_image -->
<g id="node10" class="node">
<title>custom_image</title>
<path fill="#dddddd" stroke="#111111" d="M265,-36C265,-36 12,-36 12,-36 6,-36 0,-30 0,-24 0,-24 0,-12 0,-12 0,-6 6,0 12,0 12,0 265,0 265,0 271,0 277,-6 277,-12 277,-12 277,-24 277,-24 277,-30 271,-36 265,-36"/>
<text xml:space="preserve" text-anchor="middle" x="138.5" y="-13.32" font-family="Droid Sans" font-size="14.00">Look into making a custom Bazzite image</text>
</g>
<!-- can_layer&#45;&gt;custom_image -->
<g id="edge12" class="edge">
<title>can_layer&#45;&gt;custom_image</title>
<path fill="none" stroke="black" stroke-width="2" d="M253.59,-124.85C230.94,-104.02 192.8,-68.95 166.68,-44.92"/>
<polygon fill="black" stroke="black" stroke-width="2" points="169.28,-42.55 159.55,-38.36 164.54,-47.7 169.28,-42.55"/>
<text xml:space="preserve" text-anchor="middle" x="222.9" y="-75.95" font-family="Droid Sans" font-size="14.00">No</text>
</g>
<!-- layer -->
<g id="node11" class="node">
<title>layer</title>
<path fill="#dddddd" stroke="#111111" d="M488,-36C488,-36 325,-36 325,-36 319,-36 313,-30 313,-24 313,-24 313,-12 313,-12 313,-6 319,0 325,0 325,0 488,0 488,0 494,0 500,-6 500,-12 500,-12 500,-24 500,-24 500,-30 494,-36 488,-36"/>
<text xml:space="preserve" text-anchor="middle" x="406.5" y="-13.32" font-family="Droid Sans" font-size="14.00">Layer it, but know the risks!</text>
</g>
<!-- can_layer&#45;&gt;layer -->
<g id="edge11" class="edge">
<title>can_layer&#45;&gt;layer</title>
<path fill="none" stroke="black" stroke-width="2" d="M291.41,-124.85C314.06,-104.02 352.2,-68.95 378.32,-44.92"/>
<polygon fill="black" stroke="black" stroke-width="2" points="380.46,-47.7 385.45,-38.36 375.72,-42.55 380.46,-47.7"/>
<text xml:space="preserve" text-anchor="middle" x="357.65" y="-75.95" font-family="Droid Sans" font-size="14.00">Yes</text>
</g>
</g>
</svg>
