<?xml version="1.0" encoding="UTF-8" standalone="no"?>
<!DOCTYPE svg PUBLIC "-//W3C//DTD SVG 1.1//EN"
 "http://www.w3.org/Graphics/SVG/1.1/DTD/svg11.dtd">
<!-- Generated by graphviz version 14.1.1 (20251213.1925)
 -->
<!-- Title: DecisionTree Pages: 1 -->
<svg width="787pt" height="691pt"
 viewBox="0.00 0.00 787.00 691.00" xmlns="http://www.w3.org/2000/svg" xmlns:xlink="http://www.w3.org/1999/xlink">
<g id="graph0" class="graph" transform="scale(1 1) rotate(0) translate(14.4 676.65)">
<title>DecisionTree</title>
<polygon fill="#1c1c1c" stroke="none" points="-14.4,14.4 -14.4,-676.65 772.52,-676.65 772.52,14.4 -14.4,14.4"/>
<!-- is_gui -->
<g id="node1" class="node">
<title>is_gui</title>
<path fill="#444444" stroke="#222222" stroke-width="2" d="M600.25,-662.25C600.25,-662.25 540.75,-662.25 540.75,-662.25 534.75,-662.25 528.75,-656.25 528.75,-650.25 528.75,-650.25 528.75,-638.25 528.75,-638.25 528.75,-632.25 534.75,-626.25 540.75,-626.25 540.75,-626.25 600.25,-626.25 600.25,-626.25 606.25,-626.25 612.25,-632.25 612.25,-638.25 612.25,-638.25 612.25,-650.25 612.25,-650.25 612.25,-656.25 606.25,-662.25 600.25,-662.25"/>
<text xml:space="preserve" text-anchor="middle" x="570.5" y="-639.58" font-family="Droid Sans" font-size="14.00" fill="#eeeeee">Is it a GUI?</text>
</g>
<!-- has_brew -->
<g id="node2" class="node">
<title>has_brew</title>
<path fill="#444444" stroke="#222222" stroke-width="2" d="M550.38,-537C550.38,-537 374.62,-537 374.62,-537 368.62,-537 362.62,-531 362.62,-525 362.62,-525 362.62,-513 362.62,-513 362.62,-507 368.62,-501 374.62,-501 374.62,-501 550.38,-501 550.38,-501 556.38,-501 562.38,-507 562.38,-513 562.38,-513 562.38,-525 562.38,-525 562.38,-531 556.38,-537 550.38,-537"/>
<text xml:space="preserve" text-anchor="middle" x="462.5" y="-514.33" font-family="Droid Sans" font-size="14.00" fill="#eeeeee">Does it have a brew formula?</text>
</g>
<!-- is_gui&#45;&gt;has_brew -->
<g id="edge1" class="edge">
<title>is_gui&#45;&gt;has_brew</title>
<path fill="none" stroke="#eeeeee" stroke-width="2" d="M554.8,-625.33C536.88,-604.88 507.37,-571.21 486.56,-547.45"/>
<polygon fill="#eeeeee" stroke="#eeeeee" stroke-width="2" points="489.44,-545.43 480.22,-540.22 484.18,-550.05 489.44,-545.43"/>
<text xml:space="preserve" text-anchor="middle" x="532.34" y="-576.95" font-family="Droid Sans" font-size="14.00" fill="#eeeeee">No</text>
</g>
<!-- has_flatpak -->
<g id="node3" class="node">
<title>has_flatpak</title>
<path fill="#444444" stroke="#222222" stroke-width="2" d="M746.12,-537C746.12,-537 610.88,-537 610.88,-537 604.88,-537 598.88,-531 598.88,-525 598.88,-525 598.88,-513 598.88,-513 598.88,-507 604.88,-501 610.88,-501 610.88,-501 746.12,-501 746.12,-501 752.12,-501 758.12,-507 758.12,-513 758.12,-513 758.12,-525 758.12,-525 758.12,-531 752.12,-537 746.12,-537"/>
<text xml:space="preserve" text-anchor="middle" x="678.5" y="-514.33" font-family="Droid Sans" font-size="14.00" fill="#eeeeee">Does it have a Flatpak?</text>
</g>
<!-- is_gui&#45;&gt;has_flatpak -->
<g id="edge2" class="edge">
<title>is_gui&#45;&gt;has_flatpak</title>
<path fill="none" stroke="#eeeeee" stroke-width="2" d="M586.2,-625.33C604.12,-604.88 633.63,-571.21 654.44,-547.45"/>
<polygon fill="#eeeeee" stroke="#eeeeee" stroke-width="2" points="656.82,-550.05 660.78,-540.22 651.56,-545.43 656.82,-550.05"/>
<text xml:space="preserve" text-anchor="middle" x="641.09" y="-576.95" font-family="Droid Sans" font-size="14.00" fill="#eeeeee">Yes</text>
</g>
<!-- can_use_distrobox -->
<g id="node4" class="node">
<title>can_use_distrobox</title>
<path fill="#444444" stroke="#222222" stroke-width="2" d="M577.25,-411.75C577.25,-411.75 385.75,-411.75 385.75,-411.75 379.75,-411.75 373.75,-405.75 373.75,-399.75 373.75,-399.75 373.75,-387.75 373.75,-387.75 373.75,-381.75 379.75,-375.75 385.75,-375.75 385.75,-375.75 577.25,-375.75 577.25,-375.75 583.25,-375.75 589.25,-381.75 589.25,-387.75 589.25,-387.75 589.25,-399.75 589.25,-399.75 589.25,-405.75 583.25,-411.75 577.25,-411.75"/>
<text xml:space="preserve" text-anchor="middle" x="481.5" y="-389.07" font-family="Droid Sans" font-size="14.00" fill="#eeeeee">Can you install it in a distrobox?</text>
</g>
<!-- has_brew&#45;&gt;can_use_distrobox -->
<g id="edge4" class="edge">
<title>has_brew&#45;&gt;can_use_distrobox</title>
<path fill="none" stroke="#eeeeee" stroke-width="2" d="M465.26,-500.08C468.27,-480.54 473.15,-448.94 476.77,-425.44"/>
<polygon fill="#eeeeee" stroke="#eeeeee" stroke-width="2" points="480.21,-426.1 478.27,-415.68 473.29,-425.03 480.21,-426.1"/>
<text xml:space="preserve" text-anchor="middle" x="482.51" y="-451.7" font-family="Droid Sans" font-size="14.00" fill="#eeeeee">No</text>
</g>
<!-- install -->
<g id="node7" class="node">
<title>install</title>
<path fill="#444444" stroke="#222222" stroke-width="2" d="M687.62,-411.75C687.62,-411.75 645.38,-411.75 645.38,-411.75 639.38,-411.75 633.38,-405.75 633.38,-399.75 633.38,-399.75 633.38,-387.75 633.38,-387.75 633.38,-381.75 639.38,-375.75 645.38,-375.75 645.38,-375.75 687.62,-375.75 687.62,-375.75 693.62,-375.75 699.62,-381.75 699.62,-387.75 699.62,-387.75 699.62,-399.75 699.62,-399.75 699.62,-405.75 693.62,-411.75 687.62,-411.75"/>
<text xml:space="preserve" text-anchor="middle" x="666.5" y="-389.07" font-family="Droid Sans" font-size="14.00" fill="#eeeeee">Install it</text>
</g>
<!-- has_brew&#45;&gt;install -->
<g id="edge3" class="edge">
<title>has_brew&#45;&gt;install</title>
<path fill="none" stroke="#eeeeee" stroke-width="2" d="M480.08,-500.11C495.84,-484.78 520.14,-462.85 544.25,-447.75 568.01,-432.87 596.68,-420.2 620.28,-410.98"/>
<polygon fill="#eeeeee" stroke="#eeeeee" stroke-width="2" points="621.52,-414.25 629.63,-407.43 619.04,-407.71 621.52,-414.25"/>
<text xml:space="preserve" text-anchor="middle" x="554.38" y="-451.7" font-family="Droid Sans" font-size="14.00" fill="#eeeeee">Yes</text>
</g>
<!-- has_flatpak&#45;&gt;can_use_distrobox -->
<g id="edge6" class="edge">
<title>has_flatpak&#45;&gt;can_use_distrobox</title>
<path fill="none" stroke="#eeeeee" stroke-width="2" d="M652.92,-500.19C631.85,-485.69 601.07,-464.89 573.5,-447.75 557.75,-437.96 540.18,-427.68 524.64,-418.81"/>
<polygon fill="#eeeeee" stroke="#eeeeee" stroke-width="2" points="526.8,-416.01 516.38,-414.12 523.35,-422.1 526.8,-416.01"/>
<text xml:space="preserve" text-anchor="middle" x="609.17" y="-451.7" font-family="Droid Sans" font-size="14.00" fill="#eeeeee">No</text>
</g>
<!-- has_flatpak&#45;&gt;install -->
<g id="edge5" class="edge">
<title>has_flatpak&#45;&gt;install</title>
<path fill="none" stroke="#eeeeee" stroke-width="2" d="M676.76,-500.08C674.85,-480.54 671.78,-448.94 669.49,-425.44"/>
<polygon fill="#eeeeee" stroke="#eeeeee" stroke-width="2" points="672.99,-425.32 668.54,-415.71 666.03,-426 672.99,-425.32"/>
<text xml:space="preserve" text-anchor="middle" x="683.34" y="-451.7" font-family="Droid Sans" font-size="14.00" fill="#eeeeee">Yes</text>
</g>
<!-- has_appimage -->
<g id="node5" class="node">
<title>has_appimage</title>
<path fill="#444444" stroke="#222222" stroke-width="2" d="M463,-286.5C463,-286.5 300,-286.5 300,-286.5 294,-286.5 288,-280.5 288,-274.5 288,-274.5 288,-262.5 288,-262.5 288,-256.5 294,-250.5 300,-250.5 300,-250.5 463,-250.5 463,-250.5 469,-250.5 475,-256.5 475,-262.5 475,-262.5 475,-274.5 475,-274.5 475,-280.5 469,-286.5 463,-286.5"/>
<text xml:space="preserve" text-anchor="middle" x="381.5" y="-263.82" font-family="Droid Sans" font-size="14.00" fill="#eeeeee">Does it have an AppImage?</text>
</g>
<!-- can_use_distrobox&#45;&gt;has_appimage -->
<g id="edge8" class="edge">
<title>can_use_distrobox&#45;&gt;has_appimage</title>
<path fill="none" stroke="#eeeeee" stroke-width="2" d="M466.96,-374.83C450.44,-354.47 423.29,-321.01 404.03,-297.27"/>
<polygon fill="#eeeeee" stroke="#eeeeee" stroke-width="2" points="406.98,-295.35 397.97,-289.79 401.55,-299.76 406.98,-295.35"/>
<text xml:space="preserve" text-anchor="middle" x="446.86" y="-326.45" font-family="Droid Sans" font-size="14.00" fill="#eeeeee">No</text>
</g>
<!-- export -->
<g id="node8" class="node">
<title>export</title>
<path fill="#444444" stroke="#222222" stroke-width="2" d="M637.62,-286.5C637.62,-286.5 523.38,-286.5 523.38,-286.5 517.38,-286.5 511.38,-280.5 511.38,-274.5 511.38,-274.5 511.38,-262.5 511.38,-262.5 511.38,-256.5 517.38,-250.5 523.38,-250.5 523.38,-250.5 637.62,-250.5 637.62,-250.5 643.62,-250.5 649.62,-256.5 649.62,-262.5 649.62,-262.5 649.62,-274.5 649.62,-274.5 649.62,-280.5 643.62,-286.5 637.62,-286.5"/>
<text xml:space="preserve" text-anchor="middle" x="580.5" y="-263.82" font-family="Droid Sans" font-size="14.00" fill="#eeeeee">Install and export it</text>
</g>
<!-- can_use_distrobox&#45;&gt;export -->
<g id="edge7" class="edge">
<title>can_use_distrobox&#45;&gt;export</title>
<path fill="none" stroke="#eeeeee" stroke-width="2" d="M495.9,-374.83C512.17,-354.56 538.88,-321.31 557.94,-297.59"/>
<polygon fill="#eeeeee" stroke="#eeeeee" stroke-width="2" points="560.66,-299.79 564.19,-289.8 555.2,-295.41 560.66,-299.79"/>
<text xml:space="preserve" text-anchor="middle" x="547.05" y="-326.45" font-family="Droid Sans" font-size="14.00" fill="#eeeeee">Yes</text>
</g>
<!-- can_layer -->
<g id="node6" class="node">
<title>can_layer</title>
<path fill="#444444" stroke="#222222" stroke-width="2" d="M320.25,-161.25C320.25,-161.25 224.75,-161.25 224.75,-161.25 218.75,-161.25 212.75,-155.25 212.75,-149.25 212.75,-149.25 212.75,-137.25 212.75,-137.25 212.75,-131.25 218.75,-125.25 224.75,-125.25 224.75,-125.25 320.25,-125.25 320.25,-125.25 326.25,-125.25 332.25,-131.25 332.25,-137.25 332.25,-137.25 332.25,-149.25 332.25,-149.25 332.25,-155.25 326.25,-161.25 320.25,-161.25"/>
<text xml:space="preserve" text-anchor="middle" x="272.5" y="-138.57" font-family="Droid Sans" font-size="14.00" fill="#eeeeee">Can you layer it?</text>
</g>
<!-- has_appimage&#45;&gt;can_layer -->
<g id="edge10" class="edge">
<title>has_appimage&#45;&gt;can_layer</title>
<path fill="none" stroke="#eeeeee" stroke-width="2" d="M365.65,-249.58C347.57,-229.13 317.79,-195.46 296.78,-171.7"/>
<polygon fill="#eeeeee" stroke="#eeeeee" stroke-width="2" points="299.62,-169.63 290.37,-164.46 294.38,-174.27 299.62,-169.63"/>
<text xml:space="preserve" text-anchor="middle" x="342.9" y="-201.2" font-family="Droid Sans" font-size="14.00" fill="#eeeeee">No</text>
</g>
<!-- gearlever -->
<g id="node9" class="node">
<title>gearlever</title>
<path fill="#444444" stroke="#222222" stroke-width="2" d="M600.5,-161.25C600.5,-161.25 380.5,-161.25 380.5,-161.25 374.5,-161.25 368.5,-155.25 368.5,-149.25 368.5,-149.25 368.5,-137.25 368.5,-137.25 368.5,-131.25 374.5,-125.25 380.5,-125.25 380.5,-125.25 600.5,-125.25 600.5,-125.25 606.5,-125.25 612.5,-131.25 612.5,-137.25 612.5,-137.25 612.5,-149.25 612.5,-149.25 612.5,-155.25 606.5,-161.25 600.5,-161.25"/>
<text xml:space="preserve" text-anchor="middle" x="490.5" y="-138.57" font-family="Droid Sans" font-size="14.00" fill="#eeeeee">Download it and put it in Gear Lever</text>
</g>
<!-- has_appimage&#45;&gt;gearlever -->
<g id="edge9" class="edge">
<title>has_appimage&#45;&gt;gearlever</title>
<path fill="none" stroke="#eeeeee" stroke-width="2" d="M397.35,-249.58C415.43,-229.13 445.21,-195.46 466.22,-171.7"/>
<polygon fill="#eeeeee" stroke="#eeeeee" stroke-width="2" points="468.62,-174.27 472.63,-164.46 463.38,-169.63 468.62,-174.27"/>
<text xml:space="preserve" text-anchor="middle" x="452.65" y="-201.2" font-family="Droid Sans" font-size="14.00" fill="#eeeeee">Yes</text>
</g>
<!-- custom_image -->
<g id="node10" class="node">
<title>custom_image</title>
<path fill="#444444" stroke="#222222" stroke-width="2" d="M265,-36C265,-36 12,-36 12,-36 6,-36 0,-30 0,-24 0,-24 0,-12 0,-12 0,-6 6,0 12,0 12,0 265,0 265,0 271,0 277,-6 277,-12 277,-12 277,-24 277,-24 277,-30 271,-36 265,-36"/>
<text xml:space="preserve" text-anchor="middle" x="138.5" y="-13.32" font-family="Droid Sans" font-size="14.00" fill="#eeeeee">Look into making a custom Bazzite image</text>
</g>
<!-- can_layer&#45;&gt;custom_image -->
<g id="edge12" class="edge">
<title>can_layer&#45;&gt;custom_image</title>
<path fill="none" stroke="#eeeeee" stroke-width="2" d="M253.02,-124.33C230.49,-103.61 193.19,-69.31 167.31,-45.5"/>
<polygon fill="#eeeeee" stroke="#eeeeee" stroke-width="2" points="169.97,-43.19 160.24,-38.99 165.23,-48.34 169.97,-43.19"/>
<text xml:space="preserve" text-anchor="middle" x="222.9" y="-75.95" font-family="Droid Sans" font-size="14.00" fill="#eeeeee">No</text>
</g>
<!-- layer -->
<g id="node11" class="node">
<title>layer</title>
<path fill="#444444" stroke="#222222" stroke-width="2" d="M488,-36C488,-36 325,-36 325,-36 319,-36 313,-30 313,-24 313,-24 313,-12 313,-12 313,-6 319,0 325,0 325,0 488,0 488,0 494,0 500,-6 500,-12 500,-12 500,-24 500,-24 500,-30 494,-36 488,-36"/>
<text xml:space="preserve" text-anchor="middle" x="406.5" y="-13.32" font-family="Droid Sans" font-size="14.00" fill="#eeeeee">Layer it, but know the risks!</text>
</g>
<!-- can_layer&#45;&gt;layer -->
<g id="edge11" class="edge">
<title>can_layer&#45;&gt;layer</title>
<path fill="none" stroke="#eeeeee" stroke-width="2" d="M291.98,-124.33C314.51,-103.61 351.81,-69.31 377.69,-45.5"/>
<polygon fill="#eeeeee" stroke="#eeeeee" stroke-width="2" points="379.77,-48.34 384.76,-38.99 375.03,-43.19 379.77,-48.34"/>
<text xml:space="preserve" text-anchor="middle" x="357.65" y="-75.95" font-family="Droid Sans" font-size="14.00" fill="#eeeeee">Yes</text>
</g>
</g>
</svg>
