<?xml version="1.0" encoding="UTF-8" standalone="no"?>
<!-- Generated by graphviz version 14.1.1 (20251213.1925)
 -->

<!-- Title: DecisionTree Pages: 1 -->

<svg
   width="787.00006pt"
   height="691pt"
   viewBox="0 0 787.00006 691"
   version="1.1"
   id="svg24"
   xmlns="http://www.w3.org/2000/svg"
   xmlns:svg="http://www.w3.org/2000/svg">
  <defs
     id="defs24" />
  <g
     id="graph0"
     class="graph"
     transform="translate(14.4,676.65)">
    <title
       id="title1">DecisionTree</title>
    <!-- is_gui -->
    <!-- has_brew -->
    <!-- is_gui&#45;&gt;has_brew -->
    <!-- has_flatpak -->
    <!-- is_gui&#45;&gt;has_flatpak -->
    <!-- can_use_distrobox -->
    <!-- has_brew&#45;&gt;can_use_distrobox -->
    <!-- install -->
    <!-- has_brew&#45;&gt;install -->
    <!-- has_flatpak&#45;&gt;can_use_distrobox -->
    <!-- has_flatpak&#45;&gt;install -->
    <!-- has_appimage -->
    <!-- can_use_distrobox&#45;&gt;has_appimage -->
    <!-- export -->
    <!-- can_use_distrobox&#45;&gt;export -->
    <!-- can_layer -->
    <!-- has_appimage&#45;&gt;can_layer -->
    <!-- gearlever -->
    <!-- has_appimage&#45;&gt;gearlever -->
    <!-- custom_image -->
    <!-- can_layer&#45;&gt;custom_image -->
    <!-- layer -->
    <!-- can_layer&#45;&gt;layer -->
    <g
       id="g25">
      <polygon
         fill="#1c1c1c"
         stroke="none"
         points="772.52,-676.65 772.52,14.4 -14.4,14.4 -14.4,-676.65 "
         id="polygon1" />
      <g
         id="node10"
         class="node">
        <title
           id="title21">custom_image</title>
        <path
           fill="#444444"
           stroke="#222222"
           stroke-width="2"
           d="m 265,-36 c 0,0 -253,0 -253,0 -6,0 -12,6 -12,12 0,0 0,12 0,12 0,6 6,12 12,12 0,0 253,0 253,0 6,0 12,-6 12,-12 0,0 0,-12 0,-12 0,-6 -6,-12 -12,-12"
           id="path21" />
        <text
           xml:space="preserve"
           text-anchor="middle"
           x="138.5"
           y="-13.32"
           font-family="'Droid Sans'"
           font-size="14px"
           fill="#eeeeee"
           id="text21">Look into making a custom Bazzite image</text>
      </g>
      <g
         id="g24">
        <g
           id="node1"
           class="node">
          <title
             id="title2">is_gui</title>
          <path
             fill="#444444"
             stroke="#222222"
             stroke-width="2.68005"
             d="m 624.14122,-661.90998 c 0,0 -106.47992,0 -106.47992,0 -10.73747,0 -21.47494,6.02042 -21.47494,12.04083 0,0 0,12.04082 0,12.04082 0,6.02042 10.73747,12.04084 21.47494,12.04084 0,0 106.47992,0 106.47992,0 10.73748,0 21.47494,-6.02042 21.47494,-12.04084 0,0 0,-12.04082 0,-12.04082 0,-6.02041 -10.73746,-12.04083 -21.47494,-12.04083"
             id="path2" />
          <text
             xml:space="preserve"
             text-anchor="middle"
             x="570.5"
             y="-639.58002"
             font-family="'Droid Sans'"
             font-size="14px"
             fill="#eeeeee"
             id="text2">Graphical Application?</text>
        </g>
        <g
           id="node2"
           class="node">
          <title
             id="title3">has_brew</title>
          <path
             fill="#444444"
             stroke="#222222"
             stroke-width="2"
             d="m 550.38,-537 c 0,0 -175.76,0 -175.76,0 -6,0 -12,6 -12,12 0,0 0,12 0,12 0,6 6,12 12,12 0,0 175.76,0 175.76,0 6,0 12,-6 12,-12 0,0 0,-12 0,-12 0,-6 -6,-12 -12,-12"
             id="path3" />
          <text
             xml:space="preserve"
             text-anchor="middle"
             x="462.5"
             y="-514.33002"
             font-family="'Droid Sans'"
             font-size="14px"
             fill="#eeeeee"
             id="text3">Is it available in Homebrew?</text>
        </g>
        <g
           id="edge1"
           class="edge">
          <title
             id="title4">is_gui-&gt;has_brew</title>
          <path
             fill="none"
             stroke="#eeeeee"
             stroke-width="2"
             d="m 554.8,-625.33 c -17.92,20.45 -47.43,54.12 -68.24,77.88"
             id="path4" />
          <polygon
             fill="#eeeeee"
             stroke="#eeeeee"
             stroke-width="2"
             points="489.44,-545.43 480.22,-540.22 484.18,-550.05 "
             id="polygon4" />
          <text
             xml:space="preserve"
             text-anchor="middle"
             x="532.34003"
             y="-576.95001"
             font-family="'Droid Sans'"
             font-size="14px"
             fill="#eeeeee"
             id="text4">No</text>
        </g>
        <g
           id="node3"
           class="node">
          <title
             id="title5">has_flatpak</title>
          <path
             fill="#444444"
             stroke="#222222"
             stroke-width="2"
             d="m 746.12,-537 c 0,0 -135.24,0 -135.24,0 -6,0 -12,6 -12,12 0,0 0,12 0,12 0,6 6,12 12,12 0,0 135.24,0 135.24,0 6,0 12,-6 12,-12 0,0 0,-12 0,-12 0,-6 -6,-12 -12,-12"
             id="path5" />
          <text
             xml:space="preserve"
             text-anchor="middle"
             x="678.5"
             y="-514.33002"
             font-family="'Droid Sans'"
             font-size="14px"
             fill="#eeeeee"
             id="text5">Is it available in Bazaar?</text>
        </g>
        <g
           id="edge2"
           class="edge">
          <title
             id="title6">is_gui-&gt;has_flatpak</title>
          <path
             fill="none"
             stroke="#eeeeee"
             stroke-width="2"
             d="m 586.2,-625.33 c 17.92,20.45 47.43,54.12 68.24,77.88"
             id="path6" />
          <polygon
             fill="#eeeeee"
             stroke="#eeeeee"
             stroke-width="2"
             points="656.82,-550.05 660.78,-540.22 651.56,-545.43 "
             id="polygon6" />
          <text
             xml:space="preserve"
             text-anchor="middle"
             x="641.09003"
             y="-576.95001"
             font-family="'Droid Sans'"
             font-size="14px"
             fill="#eeeeee"
             id="text6">Yes</text>
        </g>
        <g
           id="node4"
           class="node">
          <title
             id="title7">can_use_distrobox</title>
          <path
             fill="#444444"
             stroke="#222222"
             stroke-width="2"
             d="m 577.25,-411.75 c 0,0 -191.5,0 -191.5,0 -6,0 -12,6 -12,12 0,0 0,12 0,12 0,6 6,12 12,12 0,0 191.5,0 191.5,0 6,0 12,-6 12,-12 0,0 0,-12 0,-12 0,-6 -6,-12 -12,-12"
             id="path7" />
          <text
             xml:space="preserve"
             text-anchor="middle"
             x="481.5"
             y="-389.07001"
             font-family="'Droid Sans'"
             font-size="14px"
             fill="#eeeeee"
             id="text7"
             style="font-size:10px">Can you install it in a Distrobox container?</text>
        </g>
        <g
           id="edge4"
           class="edge">
          <title
             id="title8">has_brew-&gt;can_use_distrobox</title>
          <path
             fill="none"
             stroke="#eeeeee"
             stroke-width="2"
             d="m 465.26,-500.08 c 3.01,19.54 7.89,51.14 11.51,74.64"
             id="path8" />
          <polygon
             fill="#eeeeee"
             stroke="#eeeeee"
             stroke-width="2"
             points="480.21,-426.1 478.27,-415.68 473.29,-425.03 "
             id="polygon8" />
          <text
             xml:space="preserve"
             text-anchor="middle"
             x="482.51001"
             y="-451.70001"
             font-family="'Droid Sans'"
             font-size="14px"
             fill="#eeeeee"
             id="text8">No</text>
        </g>
        <g
           id="node7"
           class="node">
          <title
             id="title9">install</title>
          <path
             fill="#444444"
             stroke="#222222"
             stroke-width="2"
             d="m 687.62,-411.75 c 0,0 -42.24,0 -42.24,0 -6,0 -12,6 -12,12 0,0 0,12 0,12 0,6 6,12 12,12 0,0 42.24,0 42.24,0 6,0 12,-6 12,-12 0,0 0,-12 0,-12 0,-6 -6,-12 -12,-12"
             id="path9" />
          <text
             xml:space="preserve"
             text-anchor="middle"
             x="666.5"
             y="-389.07001"
             font-family="'Droid Sans'"
             font-size="14px"
             fill="#eeeeee"
             id="text9">Install it</text>
        </g>
        <g
           id="edge3"
           class="edge">
          <title
             id="title10">has_brew-&gt;install</title>
          <path
             fill="none"
             stroke="#eeeeee"
             stroke-width="2"
             d="m 480.08,-500.11 c 15.76,15.33 40.06,37.26 64.17,52.36 23.76,14.88 52.43,27.55 76.03,36.77"
             id="path10" />
          <polygon
             fill="#eeeeee"
             stroke="#eeeeee"
             stroke-width="2"
             points="621.52,-414.25 629.63,-407.43 619.04,-407.71 "
             id="polygon10" />
          <text
             xml:space="preserve"
             text-anchor="middle"
             x="554.38"
             y="-451.70001"
             font-family="'Droid Sans'"
             font-size="14px"
             fill="#eeeeee"
             id="text10">Yes</text>
        </g>
        <g
           id="edge6"
           class="edge">
          <title
             id="title11">has_flatpak-&gt;can_use_distrobox</title>
          <path
             fill="none"
             stroke="#eeeeee"
             stroke-width="2"
             d="m 652.92,-500.19 c -21.07,14.5 -51.85,35.3 -79.42,52.44 -15.75,9.79 -33.32,20.07 -48.86,28.94"
             id="path11" />
          <polygon
             fill="#eeeeee"
             stroke="#eeeeee"
             stroke-width="2"
             points="526.8,-416.01 516.38,-414.12 523.35,-422.1 "
             id="polygon11" />
          <text
             xml:space="preserve"
             text-anchor="middle"
             x="609.16998"
             y="-451.70001"
             font-family="'Droid Sans'"
             font-size="14px"
             fill="#eeeeee"
             id="text11">No</text>
        </g>
        <g
           id="edge5"
           class="edge">
          <title
             id="title12">has_flatpak-&gt;install</title>
          <path
             fill="none"
             stroke="#eeeeee"
             stroke-width="2"
             d="m 676.76,-500.08 c -1.91,19.54 -4.98,51.14 -7.27,74.64"
             id="path12" />
          <polygon
             fill="#eeeeee"
             stroke="#eeeeee"
             stroke-width="2"
             points="672.99,-425.32 668.54,-415.71 666.03,-426 "
             id="polygon12" />
          <text
             xml:space="preserve"
             text-anchor="middle"
             x="683.34003"
             y="-451.70001"
             font-family="'Droid Sans'"
             font-size="14px"
             fill="#eeeeee"
             id="text12">Yes</text>
        </g>
        <g
           id="node5"
           class="node">
          <title
             id="title13">has_appimage</title>
          <path
             fill="#444444"
             stroke="#222222"
             stroke-width="2"
             d="m 463,-286.5 c 0,0 -163,0 -163,0 -6,0 -12,6 -12,12 0,0 0,12 0,12 0,6 6,12 12,12 0,0 163,0 163,0 6,0 12,-6 12,-12 0,0 0,-12 0,-12 0,-6 -6,-12 -12,-12"
             id="path13" />
          <text
             xml:space="preserve"
             text-anchor="middle"
             x="381.5"
             y="-263.82001"
             font-family="'Droid Sans'"
             font-size="14px"
             fill="#eeeeee"
             id="text13">Does it have an AppImage?</text>
        </g>
        <g
           id="edge8"
           class="edge">
          <title
             id="title14">can_use_distrobox-&gt;has_appimage</title>
          <path
             fill="none"
             stroke="#eeeeee"
             stroke-width="2"
             d="m 466.96,-374.83 c -16.52,20.36 -43.67,53.82 -62.93,77.56"
             id="path14" />
          <polygon
             fill="#eeeeee"
             stroke="#eeeeee"
             stroke-width="2"
             points="406.98,-295.35 397.97,-289.79 401.55,-299.76 "
             id="polygon14" />
          <text
             xml:space="preserve"
             text-anchor="middle"
             x="446.85999"
             y="-326.45001"
             font-family="'Droid Sans'"
             font-size="14px"
             fill="#eeeeee"
             id="text14">No</text>
        </g>
        <g
           id="node8"
           class="node">
          <title
             id="title15">export</title>
          <path
             fill="#444444"
             stroke="#222222"
             stroke-width="2"
             d="m 637.62,-286.5 c 0,0 -114.24,0 -114.24,0 -6,0 -12,6 -12,12 0,0 0,12 0,12 0,6 6,12 12,12 0,0 114.24,0 114.24,0 6,0 12,-6 12,-12 0,0 0,-12 0,-12 0,-6 -6,-12 -12,-12"
             id="path15" />
          <text
             xml:space="preserve"
             text-anchor="middle"
             x="580.5"
             y="-263.82001"
             font-family="'Droid Sans'"
             font-size="14px"
             fill="#eeeeee"
             id="text15">Install and export it</text>
        </g>
        <g
           id="edge7"
           class="edge">
          <title
             id="title16">can_use_distrobox-&gt;export</title>
          <path
             fill="none"
             stroke="#eeeeee"
             stroke-width="2"
             d="m 495.9,-374.83 c 16.27,20.27 42.98,53.52 62.04,77.24"
             id="path16" />
          <polygon
             fill="#eeeeee"
             stroke="#eeeeee"
             stroke-width="2"
             points="560.66,-299.79 564.19,-289.8 555.2,-295.41 "
             id="polygon16" />
          <text
             xml:space="preserve"
             text-anchor="middle"
             x="547.04999"
             y="-326.45001"
             font-family="'Droid Sans'"
             font-size="14px"
             fill="#eeeeee"
             id="text16">Yes</text>
        </g>
        <g
           id="node6"
           class="node">
          <title
             id="title17">can_layer</title>
          <path
             fill="#444444"
             stroke="#222222"
             stroke-width="2"
             d="m 320.25,-161.25 c 0,0 -95.5,0 -95.5,0 -6,0 -12,6 -12,12 0,0 0,12 0,12 0,6 6,12 12,12 0,0 95.5,0 95.5,0 6,0 12,-6 12,-12 0,0 0,-12 0,-12 0,-6 -6,-12 -12,-12"
             id="path17" />
          <text
             xml:space="preserve"
             text-anchor="middle"
             x="272.5"
             y="-138.57001"
             font-family="'Droid Sans'"
             font-size="14px"
             fill="#eeeeee"
             id="text17">Can you layer it?</text>
        </g>
        <g
           id="edge10"
           class="edge">
          <title
             id="title18">has_appimage-&gt;can_layer</title>
          <path
             fill="none"
             stroke="#eeeeee"
             stroke-width="2"
             d="m 365.65,-249.58 c -18.08,20.45 -47.86,54.12 -68.87,77.88"
             id="path18" />
          <polygon
             fill="#eeeeee"
             stroke="#eeeeee"
             stroke-width="2"
             points="299.62,-169.63 290.37,-164.46 294.38,-174.27 "
             id="polygon18" />
          <text
             xml:space="preserve"
             text-anchor="middle"
             x="342.89999"
             y="-201.2"
             font-family="'Droid Sans'"
             font-size="14px"
             fill="#eeeeee"
             id="text18">No</text>
        </g>
        <g
           id="node9"
           class="node">
          <title
             id="title19">gearlever</title>
          <path
             fill="#444444"
             stroke="#222222"
             stroke-width="2"
             d="m 600.5,-161.25 c 0,0 -220,0 -220,0 -6,0 -12,6 -12,12 0,0 0,12 0,12 0,6 6,12 12,12 0,0 220,0 220,0 6,0 12,-6 12,-12 0,0 0,-12 0,-12 0,-6 -6,-12 -12,-12"
             id="path19" />
          <text
             xml:space="preserve"
             text-anchor="middle"
             x="490.5"
             y="-138.57001"
             font-family="'Droid Sans'"
             font-size="14px"
             fill="#eeeeee"
             id="text19"
             style="font-size:11px">Download it and use Gear Lever to integrate it</text>
        </g>
        <g
           id="edge9"
           class="edge">
          <title
             id="title20">has_appimage-&gt;gearlever</title>
          <path
             fill="none"
             stroke="#eeeeee"
             stroke-width="2"
             d="m 397.35,-249.58 c 18.08,20.45 47.86,54.12 68.87,77.88"
             id="path20" />
          <polygon
             fill="#eeeeee"
             stroke="#eeeeee"
             stroke-width="2"
             points="468.62,-174.27 472.63,-164.46 463.38,-169.63 "
             id="polygon20" />
          <text
             xml:space="preserve"
             text-anchor="middle"
             x="452.64999"
             y="-201.2"
             font-family="'Droid Sans'"
             font-size="14px"
             fill="#eeeeee"
             id="text20">Yes</text>
        </g>
        <g
           id="edge12"
           class="edge">
          <title
             id="title22">can_layer-&gt;custom_image</title>
          <path
             fill="none"
             stroke="#eeeeee"
             stroke-width="2"
             d="m 253.02,-124.33 c -22.53,20.72 -59.83,55.02 -85.71,78.83"
             id="path22" />
          <polygon
             fill="#eeeeee"
             stroke="#eeeeee"
             stroke-width="2"
             points="169.97,-43.19 160.24,-38.99 165.23,-48.34 "
             id="polygon22" />
          <text
             xml:space="preserve"
             text-anchor="middle"
             x="222.89999"
             y="-75.949997"
             font-family="'Droid Sans'"
             font-size="14px"
             fill="#eeeeee"
             id="text22">No</text>
        </g>
        <g
           id="node11"
           class="node">
          <title
             id="title23">layer</title>
          <path
             fill="#444444"
             stroke="#222222"
             stroke-width="2"
             d="m 488,-36 c 0,0 -163,0 -163,0 -6,0 -12,6 -12,12 0,0 0,12 0,12 0,6 6,12 12,12 0,0 163,0 163,0 6,0 12,-6 12,-12 0,0 0,-12 0,-12 0,-6 -6,-12 -12,-12"
             id="path23" />
          <text
             xml:space="preserve"
             text-anchor="middle"
             x="406.5"
             y="-13.32"
             font-family="'Droid Sans'"
             font-size="14px"
             fill="#eeeeee"
             id="text23"
             style="font-size:11px">Layer it, but understand the risks!</text>
        </g>
        <g
           id="edge11"
           class="edge">
          <title
             id="title24">can_layer-&gt;layer</title>
          <path
             fill="none"
             stroke="#eeeeee"
             stroke-width="2"
             d="m 291.98,-124.33 c 22.53,20.72 59.83,55.02 85.71,78.83"
             id="path24" />
          <polygon
             fill="#eeeeee"
             stroke="#eeeeee"
             stroke-width="2"
             points="379.77,-48.34 384.76,-38.99 375.03,-43.19 "
             id="polygon24" />
          <text
             xml:space="preserve"
             text-anchor="middle"
             x="357.64999"
             y="-75.949997"
             font-family="'Droid Sans'"
             font-size="14px"
             fill="#eeeeee"
             id="text24">Yes</text>
        </g>
      </g>
    </g>
  </g>
</svg>
