<?xml version="1.0" encoding="UTF-8" standalone="no"?>
<!-- Generated by graphviz version 14.1.1 (20251213.1925)
 -->

<!-- Title: DecisionTree Pages: 1 -->

<svg
   width="786.91998pt"
   height="691.04999pt"
   viewBox="0 0 786.91998 691.04999"
   version="1.1"
   id="svg24"
   xmlns="http://www.w3.org/2000/svg"
   xmlns:svg="http://www.w3.org/2000/svg">
  <defs
     id="defs24" />
  <g
     id="graph0"
     class="graph"
     transform="translate(14.4,676.65)">
    <title
       id="title1">DecisionTree</title>
    <!-- is_gui -->
    <!-- has_brew -->
    <!-- is_gui&#45;&gt;has_brew -->
    <!-- has_flatpak -->
    <!-- is_gui&#45;&gt;has_flatpak -->
    <!-- can_use_distrobox -->
    <!-- has_brew&#45;&gt;can_use_distrobox -->
    <!-- install -->
    <!-- has_brew&#45;&gt;install -->
    <!-- has_flatpak&#45;&gt;can_use_distrobox -->
    <!-- has_flatpak&#45;&gt;install -->
    <!-- has_appimage -->
    <!-- can_use_distrobox&#45;&gt;has_appimage -->
    <!-- export -->
    <!-- can_use_distrobox&#45;&gt;export -->
    <!-- can_layer -->
    <!-- has_appimage&#45;&gt;can_layer -->
    <!-- gearlever -->
    <!-- has_appimage&#45;&gt;gearlever -->
    <!-- custom_image -->
    <!-- can_layer&#45;&gt;custom_image -->
    <!-- layer -->
    <!-- can_layer&#45;&gt;layer -->
    <g
       id="g24">
      <polygon
         fill="#ffffff"
         stroke="none"
         points="-14.4,-676.65 772.52,-676.65 772.52,14.4 -14.4,14.4 "
         id="polygon1" />
      <path
         fill="#dddddd"
         stroke="#111111"
         d="m 624.9312,-662.08611 c 0,0 -105.86278,0 -105.86278,0 -10.67525,0 -21.35048,5.94538 -21.35048,11.89074 0,0 0,11.89074 0,11.89074 0,5.94536 10.67523,11.89074 21.35048,11.89074 0,0 105.86278,0 105.86278,0 10.67523,0 21.35048,-5.94538 21.35048,-11.89074 0,0 0,-11.89074 0,-11.89074 0,-5.94536 -10.67525,-11.89074 -21.35048,-11.89074"
         id="path2"
         style="stroke-width:1.32779" />
      <text
         xml:space="preserve"
         text-anchor="middle"
         x="570.5"
         y="-639.58002"
         font-family="'Droid Sans'"
         font-size="14px"
         id="text2">Graphical Application?</text>
      <g
         id="node2"
         class="node">
        <title
           id="title3">has_brew</title>
        <path
           fill="#dddddd"
           stroke="#111111"
           d="m 550.38,-537 c 0,0 -175.76,0 -175.76,0 -6,0 -12,6 -12,12 0,0 0,12 0,12 0,6 6,12 12,12 0,0 175.76,0 175.76,0 6,0 12,-6 12,-12 0,0 0,-12 0,-12 0,-6 -6,-12 -12,-12"
           id="path3" />
        <text
           xml:space="preserve"
           text-anchor="middle"
           x="462.5"
           y="-514.33002"
           font-family="'Droid Sans'"
           font-size="14px"
           id="text3">Is it available in Homebrew?</text>
      </g>
      <g
         id="edge1"
         class="edge">
        <title
           id="title4">is_gui-&gt;has_brew</title>
        <path
           fill="none"
           stroke="#000000"
           stroke-width="2"
           d="m 555.26,-625.85 c -18.02,20.55 -48.18,54.98 -69.21,78.97"
           id="path4" />
        <polygon
           fill="#000000"
           stroke="#000000"
           stroke-width="2"
           points="488.88,-544.8 479.66,-539.59 483.62,-549.41 "
           id="polygon4" />
        <text
           xml:space="preserve"
           text-anchor="middle"
           x="532.34003"
           y="-576.95001"
           font-family="'Droid Sans'"
           font-size="14px"
           id="text4">No</text>
      </g>
      <g
         id="node3"
         class="node">
        <title
           id="title5">has_flatpak</title>
        <path
           fill="#dddddd"
           stroke="#111111"
           d="m 746.12,-537 c 0,0 -135.24,0 -135.24,0 -6,0 -12,6 -12,12 0,0 0,12 0,12 0,6 6,12 12,12 0,0 135.24,0 135.24,0 6,0 12,-6 12,-12 0,0 0,-12 0,-12 0,-6 -6,-12 -12,-12"
           id="path5" />
        <text
           xml:space="preserve"
           text-anchor="middle"
           x="678.5"
           y="-514.33002"
           font-family="'Droid Sans'"
           font-size="14px"
           id="text5"
           style="font-size:13px">Is it available in Bazaar?</text>
      </g>
      <g
         id="edge2"
         class="edge">
        <title
           id="title6">is_gui-&gt;has_flatpak</title>
        <path
           fill="none"
           stroke="#000000"
           stroke-width="2"
           d="m 585.74,-625.85 c 18.02,20.55 48.18,54.98 69.21,78.97"
           id="path6" />
        <polygon
           fill="#000000"
           stroke="#000000"
           stroke-width="2"
           points="657.38,-549.41 661.34,-539.59 652.12,-544.8 "
           id="polygon6" />
        <text
           xml:space="preserve"
           text-anchor="middle"
           x="641.09003"
           y="-576.95001"
           font-family="'Droid Sans'"
           font-size="14px"
           id="text6">Yes</text>
      </g>
      <path
         fill="#dddddd"
         stroke="#111111"
         d="m 577.25,-411.75 c 0,0 -191.5,0 -191.5,0 -6,0 -12,6 -12,12 0,0 0,12 0,12 0,6 6,12 12,12 0,0 191.5,0 191.5,0 6,0 12,-6 12,-12 0,0 0,-12 0,-12 0,-6 -6,-12 -12,-12"
         id="path7" />
      <text
         xml:space="preserve"
         text-anchor="middle"
         x="481.5"
         y="-389.07001"
         font-family="'Droid Sans'"
         font-size="14px"
         id="text7"
         style="font-size:10px">Can you install it in a Distrobox container?</text>
      <g
         id="edge4"
         class="edge">
        <title
           id="title8">has_brew-&gt;can_use_distrobox</title>
        <path
           fill="none"
           stroke="#000000"
           stroke-width="2"
           d="m 465.18,-500.6 c 3.03,19.63 8.01,51.93 11.67,75.7"
           id="path8" />
        <polygon
           fill="#000000"
           stroke="#000000"
           stroke-width="2"
           points="480.31,-425.47 478.37,-415.05 473.39,-424.4 "
           id="polygon8" />
        <text
           xml:space="preserve"
           text-anchor="middle"
           x="482.51001"
           y="-451.70001"
           font-family="'Droid Sans'"
           font-size="14px"
           id="text8">No</text>
      </g>
      <g
         id="node7"
         class="node">
        <title
           id="title9">install</title>
        <path
           fill="#dddddd"
           stroke="#111111"
           d="m 687.62,-411.75 c 0,0 -42.24,0 -42.24,0 -6,0 -12,6 -12,12 0,0 0,12 0,12 0,6 6,12 12,12 0,0 42.24,0 42.24,0 6,0 12,-6 12,-12 0,0 0,-12 0,-12 0,-6 -6,-12 -12,-12"
           id="path9" />
        <text
           xml:space="preserve"
           text-anchor="middle"
           x="666.5"
           y="-389.07001"
           font-family="'Droid Sans'"
           font-size="14px"
           id="text9">Install it</text>
      </g>
      <g
         id="edge3"
         class="edge">
        <title
           id="title10">has_brew-&gt;install</title>
        <path
           fill="none"
           stroke="#000000"
           stroke-width="2"
           d="m 479.46,-500.71 c 15.74,15.35 40.37,37.66 64.79,52.96 24.04,15.06 53.1,27.85 76.85,37.09"
           id="path10" />
        <polygon
           fill="#000000"
           stroke="#000000"
           stroke-width="2"
           points="622.05,-414.04 630.16,-407.23 619.57,-407.5 "
           id="polygon10" />
        <text
           xml:space="preserve"
           text-anchor="middle"
           x="554.38"
           y="-451.70001"
           font-family="'Droid Sans'"
           font-size="14px"
           id="text10">Yes</text>
      </g>
      <g
         id="edge6"
         class="edge">
        <title
           id="title11">has_flatpak-&gt;can_use_distrobox</title>
        <path
           fill="none"
           stroke="#000000"
           stroke-width="2"
           d="m 653.77,-500.77 c -21.08,14.52 -52.33,35.65 -80.27,53.02 -16,9.94 -33.89,20.4 -49.6,29.36"
           id="path11" />
        <polygon
           fill="#000000"
           stroke="#000000"
           stroke-width="2"
           points="525.95,-415.53 515.53,-413.64 522.5,-421.62 "
           id="polygon11" />
        <text
           xml:space="preserve"
           text-anchor="middle"
           x="609.16998"
           y="-451.70001"
           font-family="'Droid Sans'"
           font-size="14px"
           id="text11">No</text>
      </g>
      <g
         id="edge5"
         class="edge">
        <title
           id="title12">has_flatpak-&gt;install</title>
        <path
           fill="none"
           stroke="#000000"
           stroke-width="2"
           d="m 676.81,-500.6 c -1.92,19.63 -5.06,51.93 -7.37,75.7"
           id="path12" />
        <polygon
           fill="#000000"
           stroke="#000000"
           stroke-width="2"
           points="672.93,-424.69 668.48,-415.07 665.96,-425.36 "
           id="polygon12" />
        <text
           xml:space="preserve"
           text-anchor="middle"
           x="683.34003"
           y="-451.70001"
           font-family="'Droid Sans'"
           font-size="14px"
           id="text12">Yes</text>
      </g>
      <g
         id="node5"
         class="node">
        <title
           id="title13">has_appimage</title>
        <path
           fill="#dddddd"
           stroke="#111111"
           d="m 463,-286.5 c 0,0 -163,0 -163,0 -6,0 -12,6 -12,12 0,0 0,12 0,12 0,6 6,12 12,12 0,0 163,0 163,0 6,0 12,-6 12,-12 0,0 0,-12 0,-12 0,-6 -6,-12 -12,-12"
           id="path13" />
        <text
           xml:space="preserve"
           text-anchor="middle"
           x="381.5"
           y="-263.82001"
           font-family="'Droid Sans'"
           font-size="14px"
           id="text13">Does it have an AppImage?</text>
      </g>
      <g
         id="edge8"
         class="edge">
        <title
           id="title14">can_use_distrobox-&gt;has_appimage</title>
        <path
           fill="none"
           stroke="#000000"
           stroke-width="2"
           d="m 467.38,-375.35 c -16.6,20.46 -44.36,54.67 -63.81,78.65"
           id="path14" />
        <polygon
           fill="#000000"
           stroke="#000000"
           stroke-width="2"
           points="406.47,-294.72 397.45,-289.16 401.03,-299.13 "
           id="polygon14" />
        <text
           xml:space="preserve"
           text-anchor="middle"
           x="446.85999"
           y="-326.45001"
           font-family="'Droid Sans'"
           font-size="14px"
           id="text14">No</text>
      </g>
      <g
         id="node8"
         class="node">
        <title
           id="title15">export</title>
        <path
           fill="#dddddd"
           stroke="#111111"
           d="m 637.62,-286.5 c 0,0 -114.24,0 -114.24,0 -6,0 -12,6 -12,12 0,0 0,12 0,12 0,6 6,12 12,12 0,0 114.24,0 114.24,0 6,0 12,-6 12,-12 0,0 0,-12 0,-12 0,-6 -6,-12 -12,-12"
           id="path15" />
        <text
           xml:space="preserve"
           text-anchor="middle"
           x="580.5"
           y="-263.82001"
           font-family="'Droid Sans'"
           font-size="14px"
           id="text15">Install and export it</text>
      </g>
      <g
         id="edge7"
         class="edge">
        <title
           id="title16">can_use_distrobox-&gt;export</title>
        <path
           fill="none"
           stroke="#000000"
           stroke-width="2"
           d="m 495.47,-375.35 c 16.44,20.46 43.92,54.67 63.18,78.65"
           id="path16" />
        <polygon
           fill="#000000"
           stroke="#000000"
           stroke-width="2"
           points="561.17,-299.16 564.7,-289.17 555.71,-294.77 "
           id="polygon16" />
        <text
           xml:space="preserve"
           text-anchor="middle"
           x="547.04999"
           y="-326.45001"
           font-family="'Droid Sans'"
           font-size="14px"
           id="text16">Yes</text>
      </g>
      <g
         id="node6"
         class="node">
        <title
           id="title17">can_layer</title>
        <path
           fill="#dddddd"
           stroke="#111111"
           d="m 320.25,-161.25 c 0,0 -95.5,0 -95.5,0 -6,0 -12,6 -12,12 0,0 0,12 0,12 0,6 6,12 12,12 0,0 95.5,0 95.5,0 6,0 12,-6 12,-12 0,0 0,-12 0,-12 0,-6 -6,-12 -12,-12"
           id="path17" />
        <text
           xml:space="preserve"
           text-anchor="middle"
           x="272.5"
           y="-138.57001"
           font-family="'Droid Sans'"
           font-size="14px"
           id="text17">Can you layer it?</text>
      </g>
      <g
         id="edge10"
         class="edge">
        <title
           id="title18">has_appimage-&gt;can_layer</title>
        <path
           fill="none"
           stroke="#000000"
           stroke-width="2"
           d="m 366.11,-250.1 c -18.17,20.55 -48.62,54.98 -69.84,78.97"
           id="path18" />
        <polygon
           fill="#000000"
           stroke="#000000"
           stroke-width="2"
           points="299.06,-169 289.81,-163.83 293.82,-173.64 "
           id="polygon18" />
        <text
           xml:space="preserve"
           text-anchor="middle"
           x="342.89999"
           y="-201.2"
           font-family="'Droid Sans'"
           font-size="14px"
           id="text18">No</text>
      </g>
      <g
         id="node9"
         class="node">
        <title
           id="title19">gearlever</title>
        <path
           fill="#dddddd"
           stroke="#111111"
           d="m 600.5,-161.25 c 0,0 -220,0 -220,0 -6,0 -12,6 -12,12 0,0 0,12 0,12 0,6 6,12 12,12 0,0 220,0 220,0 6,0 12,-6 12,-12 0,0 0,-12 0,-12 0,-6 -6,-12 -12,-12"
           id="path19" />
        <text
           xml:space="preserve"
           text-anchor="middle"
           x="490.5"
           y="-138.57001"
           font-family="'Droid Sans'"
           font-size="14px"
           id="text19"
           style="font-size:10px">Download it and use Gear Lever to integrate it</text>
      </g>
      <g
         id="edge9"
         class="edge">
        <title
           id="title20">has_appimage-&gt;gearlever</title>
        <path
           fill="none"
           stroke="#000000"
           stroke-width="2"
           d="m 396.89,-250.1 c 18.17,20.55 48.62,54.98 69.84,78.97"
           id="path20" />
        <polygon
           fill="#000000"
           stroke="#000000"
           stroke-width="2"
           points="469.18,-173.64 473.19,-163.83 463.94,-169 "
           id="polygon20" />
        <text
           xml:space="preserve"
           text-anchor="middle"
           x="452.64999"
           y="-201.2"
           font-family="'Droid Sans'"
           font-size="14px"
           id="text20">Yes</text>
      </g>
      <g
         id="node10"
         class="node">
        <title
           id="title21">custom_image</title>
        <path
           fill="#dddddd"
           stroke="#111111"
           d="m 265,-36 c 0,0 -253,0 -253,0 -6,0 -12,6 -12,12 0,0 0,12 0,12 0,6 6,12 12,12 0,0 253,0 253,0 6,0 12,-6 12,-12 0,0 0,-12 0,-12 0,-6 -6,-12 -12,-12"
           id="path21" />
        <text
           xml:space="preserve"
           text-anchor="middle"
           x="138.5"
           y="-13.32"
           font-family="'Droid Sans'"
           font-size="14px"
           id="text21">Look into making a custom Bazzite image</text>
      </g>
      <g
         id="edge12"
         class="edge">
        <title
           id="title22">can_layer-&gt;custom_image</title>
        <path
           fill="none"
           stroke="#000000"
           stroke-width="2"
           d="m 253.59,-124.85 c -22.65,20.83 -60.79,55.9 -86.91,79.93"
           id="path22" />
        <polygon
           fill="#000000"
           stroke="#000000"
           stroke-width="2"
           points="169.28,-42.55 159.55,-38.36 164.54,-47.7 "
           id="polygon22" />
        <text
           xml:space="preserve"
           text-anchor="middle"
           x="222.89999"
           y="-75.949997"
           font-family="'Droid Sans'"
           font-size="14px"
           id="text22">No</text>
      </g>
      <g
         id="node11"
         class="node">
        <title
           id="title23">layer</title>
        <path
           fill="#dddddd"
           stroke="#111111"
           d="m 488,-36 c 0,0 -163,0 -163,0 -6,0 -12,6 -12,12 0,0 0,12 0,12 0,6 6,12 12,12 0,0 163,0 163,0 6,0 12,-6 12,-12 0,0 0,-12 0,-12 0,-6 -6,-12 -12,-12"
           id="path23" />
        <text
           xml:space="preserve"
           text-anchor="middle"
           x="406.5"
           y="-13.32"
           font-family="'Droid Sans'"
           font-size="14px"
           id="text23"
           style="font-size:11px">Layer it, but understand the risks!</text>
      </g>
      <g
         id="edge11"
         class="edge">
        <title
           id="title24">can_layer-&gt;layer</title>
        <path
           fill="none"
           stroke="#000000"
           stroke-width="2"
           d="m 291.41,-124.85 c 22.65,20.83 60.79,55.9 86.91,79.93"
           id="path24" />
        <polygon
           fill="#000000"
           stroke="#000000"
           stroke-width="2"
           points="380.46,-47.7 385.45,-38.36 375.72,-42.55 "
           id="polygon24" />
        <text
           xml:space="preserve"
           text-anchor="middle"
           x="357.64999"
           y="-75.949997"
           font-family="'Droid Sans'"
           font-size="14px"
           id="text24">Yes</text>
      </g>
    </g>
  </g>
</svg>
